<svg version="1.1" xmlns="http://www.w3.org/2000/svg" style="display: block;" viewBox="0 0 2048 2048" width="1024" height="1024" preserveAspectRatio="none">
<path transform="translate(0,0)" fill="rgb(1,121,1)" d="M 524.854 475.686 C 533.833 468.78 555.737 451.064 568.333 455.322 C 572.102 456.596 572.974 461.696 573.901 465.236 C 603.344 462.533 624.577 461.923 651.869 473.891 C 631.987 486.888 602.719 496.3 580.607 505.836 C 538.677 524.097 499.272 547.677 463.36 575.995 C 415.636 614.169 376.909 665.536 359.156 724.534 C 352.416 746.934 349.936 766.328 347.349 789.418 C 333.291 728.9 329.916 696.645 347.865 635.985 C 351.245 625.669 354.934 614.845 359.686 605.074 L 360.265 603.906 C 355.317 609.02 347.363 626.137 343.741 633.268 C 336.59 649.363 329.908 667.189 323.576 683.729 C 328.321 702.217 324.617 714.553 317.724 731.878 C 319.933 734.216 322.767 737.054 324.684 739.524 C 326.342 753.152 325.261 766.048 322.469 779.498 C 344.679 794.581 328.171 813.977 332.968 829.029 C 337.512 830.58 338.352 828.718 343.429 831.436 C 353.484 842.68 348.79 872.492 351.242 881.041 C 354.944 878.757 360.168 875.119 363.809 879.489 C 372.732 890.2 372.829 915.669 373.479 929.076 C 379.877 922.687 385.954 919.765 391.403 929.681 C 399.041 943.58 399.624 961.618 404.694 976.729 C 410.01 971.871 420.619 961.705 427.372 971.935 C 436.581 985.886 436.746 1003.35 443.717 1019.23 C 447.745 1013.13 455.864 1001.81 463.742 1011.24 C 473.825 1023.31 478.849 1043.54 485.177 1058.16 C 487.686 1054.87 491.804 1048.64 495.984 1048.56 C 513.178 1048.26 523.192 1082.52 531.192 1094.26 C 534.122 1090 537.989 1083.11 543.443 1082.81 C 560.711 1081.84 572.391 1113.43 582.255 1125.12 C 594.117 1082.65 625.89 1140.03 638.604 1150.87 C 643.459 1137.59 645.073 1130.81 661.313 1139.16 C 677.226 1147.34 688.084 1161.99 704.332 1169.94 C 705.671 1165.99 707.802 1157.69 711.68 1156.35 C 726.837 1151.08 757.2 1169.14 769.864 1175.24 C 770.989 1163.26 775.706 1156.43 789.175 1159.4 C 805.218 1162.93 821.514 1171.75 836.886 1177.8 C 837.187 1174.13 837.526 1165 840.259 1163.15 C 853.933 1153.88 890.099 1169.91 902.611 1174.63 C 902.622 1162.03 905.196 1154.45 920.257 1155.95 C 935.736 1157.48 953.392 1164.41 967.856 1170.19 C 968.751 1164.41 969.242 1157.47 974.757 1154.42 C 989.474 1146.28 1020.95 1160.11 1035.71 1164.81 C 1036.16 1160.64 1036.73 1151.25 1039.93 1149.08 C 1054.17 1139.44 1090.59 1154.87 1103.72 1159.5 C 1106.63 1142.04 1110.18 1138.11 1130.02 1141.51 C 1143.86 1143.88 1159.19 1149.65 1172.71 1153.99 C 1173.61 1148.74 1174.25 1139.58 1178.42 1136.95 C 1186.7 1131.72 1202.86 1134.95 1211.76 1137.12 C 1220.94 1139.37 1229.92 1142.39 1238.6 1146.14 C 1239.59 1140.66 1240.47 1129.04 1245.56 1126.06 C 1264.35 1115.07 1302.53 1147.02 1309.7 1119.63 C 1312.67 1108.32 1312.12 1091.55 1322.62 1085.62 C 1336.98 1077.27 1366.18 1086.33 1370.33 1070.42 C 1372.8 1060.93 1372.03 1052.16 1376.2 1042.77 C 1390.24 1034.33 1426.5 1028.7 1443.65 1026.56 C 1441.73 990.946 1452.33 973.223 1476.62 947.719 C 1503.92 919.055 1485.41 888.943 1509.21 861.162 C 1521.98 846.253 1544.08 842.59 1560.44 833.304 C 1574.46 825.552 1586.82 811.417 1596.42 798.919 C 1610.78 780.232 1621.92 759.699 1633.53 739.28 C 1641.13 726.241 1651.88 713.444 1660.09 700.038 C 1670.89 682.404 1674.14 667.24 1680.88 647.928 C 1684.24 638.315 1688.83 628.39 1691.57 618.615 C 1697.75 596.507 1690.5 572.615 1703.55 552.164 C 1715.72 533.085 1741.08 520.302 1763.46 519.011 C 1777.44 518.205 1804.27 527.646 1802.62 545.284 C 1801.88 553.14 1795.12 562.775 1794.09 570.899 C 1792.36 582.566 1794.99 593.744 1792.2 605.413 C 1791.39 608.835 1790.1 612.126 1788.37 615.189 C 1780.92 628.423 1763.27 642.355 1759.28 656.951 C 1750.84 687.767 1760.89 717.296 1753.56 749.292 C 1746.3 780.982 1723.87 784.761 1711.38 811.962 C 1706.97 821.555 1702.82 840.897 1701.54 851.084 C 1697.17 888.923 1687.28 927.664 1653.95 950.403 C 1619.44 973.941 1586.9 995.746 1575.13 1038.53 C 1573.88 1043.09 1568.14 1059.89 1569.47 1063.73 C 1576 1043.32 1586.21 1022.79 1600.75 1006.87 C 1624.16 981.832 1657.86 968.944 1681.97 944.736 C 1703.14 923.489 1714.86 887.575 1716.78 858.565 C 1719.85 811.975 1744.31 803.893 1764.91 768.651 C 1780.42 742.101 1767.16 695.017 1772.05 666.161 C 1774.86 646.661 1800.27 637.03 1806.45 612.387 C 1811.01 594.246 1798.4 570.724 1812.08 559.607 C 1814.1 557.965 1815.81 558.845 1817.82 559.428 C 1828.08 568.384 1835.56 597.696 1835.31 611.304 C 1834.79 640.057 1821.91 667.384 1817.75 695.962 C 1801.78 805.461 1787.04 918.436 1744.35 1021.37 C 1731.82 1051.56 1715.63 1081.28 1693.52 1105.52 C 1657.65 1144.44 1599.81 1171.35 1547.13 1162.64 C 1582.78 1176.98 1615.8 1176.86 1651.5 1161.48 C 1654.7 1160.09 1657.88 1158.66 1661.04 1157.18 C 1643.66 1183.1 1630.17 1203.96 1609.79 1228.47 C 1549.01 1301.55 1473.29 1363.67 1386.71 1403.26 C 1397.14 1379.38 1400.21 1360.51 1390.29 1335.37 C 1389.35 1332.99 1388.36 1330.63 1387.33 1328.29 C 1394.86 1373.06 1375.26 1403 1341.3 1429.6 C 1354.33 1431.13 1368.75 1434.67 1380.89 1439.32 C 1398.1 1445.91 1408.11 1450.06 1427.03 1446.6 C 1451.77 1442.07 1468.59 1443.09 1489.33 1458.44 C 1479.93 1462.45 1470.01 1466.5 1460.79 1470.81 C 1482.4 1476.67 1493.4 1480.16 1502.98 1502.07 C 1485.58 1501.16 1472.41 1500.04 1455.06 1502.17 C 1469.04 1517.69 1471.35 1523.4 1473.36 1544.24 C 1455.68 1537.93 1439.11 1527.71 1421.47 1524.17 C 1420.23 1542.75 1418.6 1553.45 1408.15 1569.1 C 1396.9 1554.9 1392.38 1537.72 1375.39 1528.32 C 1353.03 1515.93 1326.7 1525.07 1302.81 1526.02 C 1168.68 1531.35 1182.42 1433.58 1243.84 1350.95 C 1208.89 1384.73 1179.76 1416.2 1178.79 1468.14 C 1178.74 1471.33 1178.72 1474.52 1178.73 1477.71 C 1152.51 1485.47 1129.13 1491.97 1102.21 1496.7 C 1001.55 1514.37 878.279 1503.55 783.768 1462.99 C 809.039 1434.87 815.463 1409.7 808.283 1372.29 C 797.745 1337.08 779.634 1321.02 749.144 1301.36 C 773.668 1327.06 790.291 1346.14 793.55 1383.27 C 794.529 1431.94 764.712 1462.4 721.191 1480.02 C 753.221 1473.65 776.736 1477.98 804.628 1495.99 C 818.938 1505.23 831.795 1517.95 836.094 1534.97 C 827.86 1533.43 817.939 1531.08 810.004 1529.85 C 804.643 1528.28 801.278 1528.01 795.81 1527.39 C 810.143 1538.57 816.614 1548.44 818.799 1566.65 L 819.014 1568.48 C 818.019 1571.4 818.939 1570.36 816.795 1572.14 C 811.055 1570.75 798.912 1565.15 792.99 1562.63 C 781.698 1557.83 774.331 1555.37 762.34 1552.37 C 769.824 1567.89 771.106 1577.74 766.307 1594.13 C 748.456 1583.73 736.784 1571.73 715.467 1560.99 C 674.071 1540.12 581.69 1538.61 594.381 1470.61 C 601.245 1433.82 635.017 1402.15 665.102 1381.63 C 644.293 1391.73 634.69 1394.82 613.092 1407.37 C 575.565 1388 562.639 1347.33 559.125 1308.14 C 550.686 1341.94 553.313 1365.93 571.599 1396.99 C 469.491 1357.21 372.285 1273.58 310.899 1183.23 C 249.056 1091.31 215.185 983.436 213.388 872.665 C 213.109 848.981 215.592 825.022 217.668 801.358 C 219.084 785.21 212.258 770.601 214.226 755.168 C 214.64 751.919 216.561 750.801 218.886 749.485 C 222.451 749.267 224.339 750.569 227.591 752.098 C 224.337 734.734 222.578 713.37 226.229 695.842 C 229.192 681.621 239.189 688.041 248.033 691.993 C 246.941 675.63 245.633 602.181 278.427 639.707 C 279.577 624.182 285.33 593.823 296.714 581.954 C 304.511 573.825 312.609 584.593 317.162 590.219 C 322.304 576.721 335.04 537.42 350.431 536.104 C 355.069 537.412 361.082 544.404 364.807 548.158 C 371.533 535.804 388.748 502.177 406.501 503.56 C 410.957 503.907 414.457 509.692 416.948 513.186 C 422.942 503.426 451.131 471.291 464.217 478.195 C 467.206 482.239 467.691 486.313 468.895 491.274 C 479.483 483.602 488.963 473.918 500.412 467.321 C 517.09 457.711 518.51 460.454 524.854 475.686 z M 1532.18 934.109 C 1534.35 925.443 1535.5 921.59 1541.04 914.179 C 1550.45 911.068 1572.01 904.378 1574.05 894.911 C 1578.13 876.01 1569.05 879.951 1582.6 860.204 L 1581.31 859.977 C 1562.54 868.943 1539.66 874.649 1532.93 895.948 C 1528.93 908.612 1529.31 920.616 1531.14 933.506 L 1532.18 934.109 z M 1722.7 570.056 C 1731.33 567.366 1735.03 564.708 1739.9 557.082 C 1741.59 554.436 1743.36 550.124 1742.22 547.095 L 1741.03 546.591 C 1734.54 550.416 1720.74 561.751 1721.56 569.704 L 1722.7 570.056 z"/>
<path transform="translate(0,0)" fill="rgb(223,254,230)" fill-opacity="0.0117647" d="M 343.741 633.268 C 347.363 626.137 355.317 609.02 360.265 603.906 L 359.686 605.074 C 354.934 614.845 351.245 625.669 347.865 635.985 C 345.501 635.021 345.826 634.953 343.741 633.268 z"/>
</svg>