<?xml version="1.0" standalone="no"?>
<!DOCTYPE svg PUBLIC "-//W3C//DTD SVG 20010904//EN"
 "http://www.w3.org/TR/2001/REC-SVG-20010904/DTD/svg10.dtd">
<svg version="1.0" xmlns="http://www.w3.org/2000/svg"
 width="1024.000000pt" height="559.000000pt" viewBox="0 0 1024.000000 559.000000"
 preserveAspectRatio="xMidYMid meet">
   <defs>
    <style>
      .green-fill { fill:#165a3a; }
      .green-line { stroke:#165a3a; stroke-width:14; fill:none; stroke-linecap:round; stroke-linejoin:round; }
      .txt { font-family:"Amazon Ember Modern","Amazon Ember",system-ui,-apple-system,Segoe UI,Roboto,Arial,sans-serif; font-weight:800; }
    </style>
  </defs>

<g transform="translate(0.000000,559.000000) scale(0.100000,-0.100000)"
fill="#000000" stroke="none">
<path d="M8430 4588 c-59 -30 -85 -76 -84 -148 0 -65 21 -109 66 -142 28 -20
45 -23 115 -23 88 0 115 11 157 69 29 38 29 137 1 186 -27 47 -94 80 -160 80
-33 0 -66 -8 -95 -22z"/>
<path d="M718 4126 c-82 -15 -194 -48 -240 -72 -28 -14 -28 -16 -28 -110 0
-74 3 -96 15 -100 8 -3 45 3 82 14 124 37 177 46 283 46 171 1 210 -34 210
-188 0 -71 -3 -87 -14 -83 -8 3 -60 11 -115 18 -259 31 -465 -67 -521 -248
-95 -309 176 -542 501 -433 35 12 84 36 109 54 25 18 50 35 57 39 7 5 16 -6
23 -30 18 -57 32 -63 141 -63 77 0 101 3 114 16 15 15 16 58 13 443 -3 381 -6
431 -22 476 -38 106 -121 178 -241 210 -81 22 -270 28 -367 11z m272 -667 l50
-11 0 -98 c0 -98 0 -98 -31 -125 -57 -47 -106 -66 -174 -67 -103 0 -155 51
-155 154 0 104 65 157 192 158 37 0 90 -5 118 -11z"/>
<path d="M2170 4126 c-63 -14 -154 -54 -221 -97 -25 -16 -48 -29 -51 -29 -3 0
-11 19 -17 43 -7 23 -18 48 -23 55 -14 16 -219 17 -236 0 -9 -9 -12 -146 -12
-554 0 -480 2 -544 16 -558 23 -23 265 -23 288 0 14 13 16 66 16 429 l0 414
53 25 c108 52 228 55 272 6 41 -45 44 -79 45 -482 0 -372 1 -388 19 -398 11
-5 76 -10 145 -10 100 0 128 3 140 16 14 13 16 66 16 430 l0 414 48 24 c27 13
76 30 110 37 112 23 184 -17 203 -112 4 -24 8 -211 9 -416 0 -358 1 -373 19
-383 11 -5 76 -10 145 -10 118 0 126 1 140 22 14 19 16 74 16 398 0 462 -9
531 -73 626 -104 153 -364 162 -606 20 l-62 -36 -31 35 c-79 90 -217 124 -368
91z"/>
<path d="M3870 4129 c-77 -12 -166 -37 -228 -65 l-53 -23 3 -98 c4 -116 -7
-111 158 -68 133 35 304 41 358 12 55 -30 72 -69 72 -170 0 -79 -2 -88 -17
-83 -33 9 -174 26 -221 26 -70 0 -173 -25 -239 -57 -71 -34 -123 -85 -160
-155 -25 -49 -28 -62 -28 -163 0 -95 3 -116 23 -153 55 -104 140 -162 268
-184 119 -20 258 16 354 92 21 17 40 30 42 30 3 0 10 -18 17 -40 6 -22 20 -44
31 -50 10 -5 61 -10 114 -10 74 0 98 3 111 16 15 15 16 58 13 443 -4 420 -4
427 -27 485 -45 113 -135 181 -279 211 -79 16 -223 18 -312 4z m259 -671 l51
-11 0 -98 0 -97 -39 -31 c-56 -44 -107 -63 -174 -64 -96 -1 -152 56 -152 153
1 72 21 105 85 138 51 25 145 30 229 10z"/>
<path d="M6150 4124 c-182 -39 -312 -161 -372 -348 -29 -90 -36 -308 -13 -410
49 -222 190 -367 398 -410 97 -20 168 -20 265 0 141 29 248 101 323 217 152
234 119 642 -65 822 -126 123 -334 173 -536 129z m252 -256 c67 -38 100 -106
119 -243 24 -183 -31 -364 -125 -409 -121 -57 -247 -6 -298 122 -19 50 -22 76
-22 202 -1 167 12 221 70 288 61 71 169 88 256 40z"/>
<path d="M7632 4125 c-74 -16 -148 -49 -225 -99 l-56 -35 -12 42 c-19 72 -28
77 -149 77 -69 0 -110 -4 -118 -12 -9 -9 -12 -146 -12 -554 0 -480 2 -544 16
-558 12 -13 40 -16 140 -16 69 0 134 5 145 10 18 10 19 26 19 424 l0 413 61
33 c76 40 199 53 261 27 72 -30 72 -32 78 -485 4 -343 7 -404 20 -412 8 -5 72
-10 142 -10 104 0 130 3 143 16 15 15 16 60 13 453 -3 381 -6 443 -21 488 -43
127 -146 200 -297 208 -54 3 -108 -1 -148 -10z"/>
<path d="M9240 4126 c-89 -17 -204 -52 -242 -74 -27 -16 -28 -18 -28 -109 0
-112 3 -115 99 -85 114 36 173 45 281 46 89 1 110 -2 140 -19 52 -31 70 -71
77 -171 l6 -87 -24 6 c-13 4 -67 12 -121 19 -242 30 -457 -68 -515 -235 -28
-81 -24 -207 8 -277 36 -76 68 -111 137 -148 82 -44 179 -59 270 -43 75 13
172 54 227 96 l34 26 11 -40 c6 -22 19 -45 30 -51 25 -13 196 -13 221 0 18 10
19 25 18 423 0 357 -2 421 -17 478 -31 117 -105 190 -232 230 -84 27 -274 34
-380 15z m280 -670 l45 -13 3 -90 3 -90 -38 -33 c-44 -39 -105 -67 -153 -71
-80 -5 -99 0 -140 39 -39 38 -40 41 -40 103 0 80 23 122 83 149 51 24 169 26
237 6z"/>
<path d="M4712 4098 c-8 -8 -12 -47 -12 -110 0 -87 2 -98 20 -108 13 -7 108
-10 275 -8 140 2 255 1 255 -2 0 -3 -39 -51 -87 -105 -49 -55 -177 -203 -285
-329 l-198 -230 0 -106 c0 -69 4 -110 12 -118 17 -17 899 -17 916 0 8 8 12 48
12 115 0 57 -1 104 -2 105 -2 1 -134 5 -295 8 l-292 5 289 338 290 338 0 97
c0 63 -4 102 -12 110 -17 17 -869 17 -886 0z"/>
<path d="M8382 4098 c-9 -9 -12 -147 -12 -560 0 -531 1 -548 19 -558 11 -5 76
-10 144 -10 108 0 126 2 141 19 15 17 16 64 14 560 -3 469 -5 543 -18 551 -23
15 -273 13 -288 -2z"/>
<path class="green-fill" d="M5962 2629 c-122 -15 -237 -91 -320 -213 l-47 -69 -120 -38 c-66 -21
-134 -43 -151 -50 -28 -11 -34 -9 -90 29 -103 70 -157 74 -268 20 -33 -15 -70
-28 -82 -28 -13 0 -59 16 -103 35 -116 51 -162 46 -276 -27 -65 -43 -61 -42
-178 -7 -69 21 -82 22 -124 11 -26 -7 -74 -33 -107 -57 -66 -50 -88 -53 -160
-29 -64 22 -112 14 -186 -32 -57 -35 -69 -38 -148 -42 -96 -4 -405 12 -492 27
-30 5 -89 14 -130 21 -264 41 -624 158 -889 289 -118 59 -165 65 -182 27 -16
-35 -7 -59 63 -167 358 -551 1143 -976 2118 -1149 661 -118 1436 -102 2125 42
55 11 120 24 143 29 107 21 411 105 557 154 450 149 774 315 942 482 64 64
115 150 127 216 4 23 16 43 30 53 53 34 63 128 25 229 -31 83 -131 184 -212
214 -143 52 -300 -2 -383 -133 l-28 -44 -145 -6 c-81 -4 -234 -11 -341 -16
-107 -5 -260 -12 -340 -16 l-145 -6 -38 54 c-103 150 -259 218 -445 197z m205
-144 c64 -29 133 -97 167 -163 17 -34 33 -52 50 -56 26 -6 389 6 835 28 l254
12 26 31 c14 17 35 46 46 65 32 53 108 98 165 98 66 0 97 -13 148 -63 73 -71
108 -160 75 -192 -41 -42 -318 -154 -483 -197 -92 -24 -149 -32 -284 -38 -242
-13 -323 -33 -521 -133 -188 -94 -305 -127 -450 -127 -112 0 -171 14 -286 66
-53 24 -103 44 -112 44 -24 0 -47 -29 -47 -60 0 -34 27 -56 122 -100 221 -104
495 -91 751 36 l70 34 49 -55 c27 -30 56 -55 64 -55 16 0 34 33 63 120 24 72
41 90 82 90 23 0 33 -9 53 -43 14 -24 36 -53 49 -65 23 -21 24 -22 40 -4 9 9
28 43 42 75 l26 57 50 0 c48 0 50 -1 80 -50 25 -41 36 -50 60 -50 25 0 32 7
60 63 17 34 32 63 34 65 1 1 40 13 86 27 46 13 133 45 194 69 60 25 110 44
112 42 10 -9 -76 -100 -139 -148 -305 -232 -856 -440 -1519 -572 -432 -87
-677 -110 -1159 -110 -418 0 -579 12 -900 70 -754 134 -1382 414 -1799 800
-55 51 -191 205 -191 217 0 2 64 -22 143 -54 395 -160 852 -249 1276 -249 135
0 175 9 254 58 53 32 60 34 95 24 114 -32 169 -24 252 38 30 23 65 43 78 47
12 3 54 -5 92 -17 104 -33 170 -26 251 28 34 23 73 42 86 42 14 0 57 -15 96
-32 99 -45 158 -44 255 0 80 37 92 37 160 -10 61 -42 111 -60 141 -53 93 23
371 119 384 133 8 9 25 37 37 60 42 84 135 159 227 182 55 13 150 2 210 -25z"/>
<path d="M7680 2417 c-19 -10 -25 -20 -25 -47 0 -31 3 -35 38 -42 20 -4 49
-15 62 -24 20 -13 28 -14 40 -4 32 26 9 91 -40 115 -40 18 -43 18 -75 2z"/>
<path d="M5988 2400 c-78 -23 -138 -96 -138 -167 0 -81 98 -84 120 -4 8 29 18
42 41 51 27 11 34 11 57 -7 15 -11 29 -33 32 -49 3 -17 16 -34 33 -44 24 -13
30 -13 55 0 73 41 7 183 -101 215 -56 17 -60 17 -99 5z"/>
<path d="M5700 2024 c-84 -36 -150 -138 -150 -232 0 -47 3 -54 25 -64 18 -8
35 -9 53 -2 21 8 28 18 34 54 16 92 47 130 117 144 19 3 40 11 48 17 16 14 17
71 1 87 -17 17 -86 14 -128 -4z"/>
</g>
</svg>
