<svg width="251" height="144" viewBox="0 0 251 144" fill="none" xmlns="http://www.w3.org/2000/svg">
<rect width="251" height="144" fill="#1E1E1E"/>
<rect x="12.5" y="0.5" width="223" height="143" fill="#D9D9D9" stroke="black"/>
<g filter="url(#filter0_d_0_1)">
<path d="M44.7641 9.376C45.1241 8.8 45.6761 8.512 46.4201 8.512C46.7081 8.512 46.9721 8.584 47.2121 8.728C47.3801 11.344 47.4641 13.924 47.4641 16.468C47.4641 19.012 47.4041 22.24 47.2841 26.152C47.1881 30.064 47.1281 32.596 47.1041 33.748C46.5281 34.132 46.0601 34.324 45.7001 34.324C45.3401 34.324 45.0641 34.288 44.8721 34.216C44.7281 32.944 44.6561 31.648 44.6561 30.328L44.8721 22.12C42.8081 21.928 40.5041 21.832 37.9601 21.832C35.4161 21.832 32.7641 22.084 30.0041 22.588C29.8121 27.34 29.7161 30.844 29.7161 33.1C29.1161 33.58 28.6241 33.82 28.2401 33.82C27.8801 33.82 27.5921 33.76 27.3761 33.64C27.3041 32.464 27.2681 30.808 27.2681 28.672C27.2681 26.536 27.4121 23.008 27.7001 18.088C28.0121 13.144 28.1801 10.288 28.2041 9.52C28.5161 9.016 29.0561 8.764 29.8241 8.764C30.0641 8.764 30.2921 8.812 30.5081 8.908C30.5801 9.58 30.6161 10.432 30.6161 11.464C30.6161 12.496 30.5441 14.08 30.4001 16.216C30.2561 18.328 30.1841 19.792 30.1841 20.608C33.0881 20.128 35.7761 19.888 38.2481 19.888C40.7201 19.888 42.9041 19.972 44.8001 20.14C44.8721 19.252 44.9081 17.944 44.9081 16.216C44.9081 14.488 44.8601 12.208 44.7641 9.376ZM63.5547 23.632L63.3747 27.772C63.3747 29.86 63.6147 31.264 64.0947 31.984C64.3827 32.464 64.7787 32.704 65.2827 32.704C65.4267 32.704 65.6307 32.668 65.8947 32.596C66.3987 32.452 66.8187 32.524 67.1547 32.812C66.9867 33.652 66.1467 34.072 64.6347 34.072C63.6027 34.072 62.9187 33.64 62.5827 32.776C62.3187 32.128 62.1267 31.324 62.0067 30.364C61.8867 29.38 61.7907 28.708 61.7187 28.348C60.1587 31.324 58.6467 33.136 57.1827 33.784C56.4387 34.12 55.5747 34.288 54.5907 34.288C53.6067 34.288 52.8387 33.82 52.2867 32.884C51.7587 31.924 51.4947 30.532 51.4947 28.708C51.4947 26.884 51.7947 24.976 52.3947 22.984C52.9947 20.968 53.8707 19.276 55.0227 17.908C56.1747 16.516 57.4347 15.82 58.8027 15.82C60.7707 15.82 62.0787 16.636 62.7267 18.268C63.2787 19.66 63.5547 21.448 63.5547 23.632ZM54.7347 22.48C54.3987 23.776 54.1467 25.012 53.9787 26.188C53.8107 27.34 53.7267 28.372 53.7267 29.284C53.7267 30.172 53.9067 30.94 54.2667 31.588C54.6507 32.236 55.1427 32.56 55.7427 32.56C57.0387 32.56 58.2867 31.336 59.4867 28.888C60.6867 26.44 61.2867 24.16 61.2867 22.048C61.2867 20.68 60.9267 19.552 60.2067 18.664C59.7267 18.088 59.0907 17.8 58.2987 17.8C57.5307 17.8 56.8227 18.256 56.1747 19.168C55.5507 20.056 55.0707 21.16 54.7347 22.48ZM71.8786 30.472L71.9866 32.524C71.9866 33.052 71.8306 33.424 71.5186 33.64C71.2306 33.832 70.9306 33.928 70.6186 33.928C70.3306 33.928 70.0306 33.88 69.7186 33.784C69.1906 31 68.7826 27.532 68.4946 23.38C68.2306 19.228 68.0746 16.876 68.0266 16.324C68.3866 15.988 68.7586 15.82 69.1426 15.82C69.5506 15.82 69.9106 15.868 70.2226 15.964C70.3186 16.66 70.3906 18.196 70.4386 20.572C70.4866 22.948 70.5466 24.436 70.6186 25.036C70.9546 23.02 71.5546 21.136 72.4186 19.384C72.8986 18.4 73.5226 17.62 74.2906 17.044C75.0826 16.444 75.9226 16.144 76.8106 16.144C77.7226 16.144 78.5506 16.552 79.2946 17.368C80.0626 18.16 80.4466 18.88 80.4466 19.528C80.4466 19.768 80.3026 19.96 80.0146 20.104C79.7266 20.224 79.4026 20.284 79.0426 20.284C78.7066 20.284 78.4426 20.152 78.2506 19.888C78.0586 19.624 77.9266 19.336 77.8546 19.024C77.7826 18.688 77.6266 18.388 77.3866 18.124C77.1466 17.86 76.8226 17.728 76.4146 17.728C75.3346 17.728 74.4106 18.7 73.6426 20.644C72.4666 23.548 71.8786 26.824 71.8786 30.472ZM86.2223 30.472L86.3303 32.524C86.3303 33.052 86.1743 33.424 85.8623 33.64C85.5743 33.832 85.2743 33.928 84.9623 33.928C84.6743 33.928 84.3743 33.88 84.0623 33.784C83.5343 31 83.1263 27.532 82.8383 23.38C82.5743 19.228 82.4183 16.876 82.3703 16.324C82.7303 15.988 83.1023 15.82 83.4863 15.82C83.8943 15.82 84.2543 15.868 84.5663 15.964C84.6623 16.66 84.7343 18.196 84.7823 20.572C84.8303 22.948 84.8903 24.436 84.9623 25.036C85.2983 23.02 85.8983 21.136 86.7623 19.384C87.2423 18.4 87.8663 17.62 88.6343 17.044C89.4263 16.444 90.2663 16.144 91.1543 16.144C92.0663 16.144 92.8943 16.552 93.6383 17.368C94.4063 18.16 94.7903 18.88 94.7903 19.528C94.7903 19.768 94.6463 19.96 94.3583 20.104C94.0703 20.224 93.7463 20.284 93.3863 20.284C93.0503 20.284 92.7863 20.152 92.5943 19.888C92.4023 19.624 92.2703 19.336 92.1983 19.024C92.1263 18.688 91.9703 18.388 91.7303 18.124C91.4903 17.86 91.1663 17.728 90.7583 17.728C89.6783 17.728 88.7543 18.7 87.9863 20.644C86.8103 23.548 86.2223 26.824 86.2223 30.472ZM105.642 18.88C105.642 17.152 106.194 16.288 107.298 16.288C107.514 16.288 107.73 16.312 107.946 16.36C107.946 16.648 107.946 17.428 107.946 18.7C107.946 19.972 108.114 22.516 108.45 26.332C108.786 30.148 108.954 33.004 108.954 34.9C108.954 37.924 108.426 40.012 107.37 41.164C106.314 42.316 104.514 42.892 101.97 42.892C99.4501 42.892 97.0741 42.076 94.8421 40.444C95.2741 39.916 95.8381 39.652 96.5341 39.652C96.7981 39.676 97.2181 39.856 97.7941 40.192C99.4981 41.2 100.914 41.704 102.042 41.704C103.722 41.704 104.91 41.176 105.606 40.12C106.302 39.064 106.65 37.288 106.65 34.792C106.65 34.192 106.59 32.032 106.47 28.312C106.446 28.384 106.362 28.696 106.218 29.248C106.074 29.776 105.966 30.124 105.894 30.292C105.822 30.46 105.69 30.772 105.498 31.228C105.33 31.684 105.15 32.008 104.958 32.2C104.766 32.392 104.514 32.62 104.202 32.884C103.674 33.364 103.002 33.604 102.186 33.604C101.394 33.604 100.758 33.496 100.278 33.28C99.7981 33.064 99.3901 32.728 99.0541 32.272C98.7421 31.816 98.4541 31.336 98.1901 30.832C97.9501 30.328 97.7581 29.692 97.6141 28.924C97.4701 28.132 97.3501 27.412 97.2541 26.764C97.1821 26.116 97.1221 25.324 97.0741 24.388C97.0501 23.452 97.0261 22.672 97.0021 22.048C97.0021 21.424 97.0021 20.632 97.0021 19.672V17.512C97.2421 17.104 97.6741 16.9 98.2981 16.9C99.1621 16.9 99.5941 17.212 99.5941 17.836L99.3781 21.328C99.3781 24.376 99.7021 27.004 100.35 29.212C100.998 31.42 101.67 32.524 102.366 32.524C102.894 32.524 103.362 32.236 103.77 31.66C104.178 31.084 104.49 30.28 104.706 29.248C104.922 28.192 105.102 27.196 105.246 26.26C105.39 25.324 105.486 24.232 105.534 22.984C105.606 21.088 105.642 19.72 105.642 18.88ZM122.129 22.408C122.129 18.664 121.973 15.364 121.661 12.508C121.661 11.764 121.973 11.116 122.597 10.564C123.221 10.012 124.049 9.592 125.081 9.304C127.145 8.776 129.413 8.512 131.885 8.512C135.077 8.512 137.585 9.22 139.409 10.636C141.257 12.028 142.181 14.176 142.181 17.08C142.181 19.984 141.005 22.312 138.653 24.064C136.301 25.816 133.433 26.692 130.049 26.692C128.321 26.692 126.509 26.332 124.613 25.612C124.493 26.764 124.433 28.324 124.433 30.292L124.469 32.056C124.469 32.632 124.457 33.232 124.433 33.856C124.313 34.024 124.181 34.144 124.037 34.216C123.893 34.288 123.785 34.336 123.713 34.36C123.665 34.408 123.581 34.444 123.461 34.468C123.341 34.492 123.257 34.504 123.209 34.504C123.065 34.552 122.897 34.576 122.705 34.576H122.093C122.045 32.776 122.021 31.156 122.021 29.716L122.129 22.408ZM124.541 23.02C126.293 24.196 128.393 24.784 130.841 24.784C133.289 24.76 135.353 24.004 137.033 22.516C138.713 21.004 139.553 19.156 139.553 16.972C139.553 14.788 138.689 13.156 136.961 12.076C135.233 10.996 133.157 10.456 130.733 10.456C128.333 10.456 126.209 11.008 124.361 12.112C124.481 13.672 124.541 17.308 124.541 23.02ZM146.425 12.472C146.425 10.096 146.101 8.5 145.453 7.684C145.765 7.228 146.305 7 147.073 7C147.217 7 147.373 7.012 147.541 7.036C148.141 7.636 148.441 9.376 148.441 12.256C148.441 13.816 148.369 15.628 148.225 17.692C147.937 21.292 147.793 23.932 147.793 25.612C147.793 30.148 148.669 32.416 150.421 32.416C150.421 32.416 150.865 32.332 151.753 32.164C151.969 32.164 152.149 32.26 152.293 32.452C152.221 33.316 151.513 33.748 150.169 33.748C148.849 33.748 147.829 33.352 147.109 32.56C146.389 31.744 145.933 30.736 145.741 29.536C145.573 28.312 145.489 27.304 145.489 26.512C145.489 25.72 145.501 24.856 145.525 23.92C145.549 22.96 145.657 21.592 145.849 19.816C146.233 16.216 146.425 13.768 146.425 12.472ZM155.039 19.06C156.263 17.188 158.027 16.252 160.331 16.252C162.635 16.252 164.471 17.188 165.839 19.06C167.231 20.932 167.927 23.068 167.927 25.468C167.927 27.844 167.171 29.86 165.659 31.516C164.147 33.172 162.227 34 159.899 34C157.571 34 155.879 33.352 154.823 32.056C153.767 30.736 153.239 28.888 153.239 26.512C153.239 23.416 153.839 20.932 155.039 19.06ZM156.623 20.968C156.311 21.904 156.071 22.84 155.903 23.776C155.759 24.712 155.687 25.588 155.687 26.404C155.687 27.196 155.747 27.928 155.867 28.6C155.987 29.248 156.191 29.896 156.479 30.544C156.767 31.168 157.199 31.672 157.775 32.056C158.351 32.416 159.035 32.596 159.827 32.596C161.435 32.596 162.779 31.936 163.859 30.616C164.963 29.296 165.515 27.7 165.515 25.828C165.515 23.956 165.011 22.144 164.003 20.392C163.019 18.616 161.807 17.728 160.367 17.728C159.503 17.728 158.747 18.028 158.099 18.628C157.451 19.228 156.959 20.008 156.623 20.968ZM171.5 18.916C170.42 18.916 169.688 18.652 169.304 18.124C169.304 17.74 169.46 17.44 169.772 17.224C170.108 17.008 170.468 16.876 170.852 16.828C171.236 16.756 171.86 16.696 172.724 16.648C172.796 16 172.832 15.172 172.832 14.164C172.856 13.132 172.88 12.256 172.904 11.536C172.976 9.64 173.264 8.476 173.768 8.044C173.984 7.852 174.212 7.756 174.452 7.756C174.716 7.756 174.944 7.78 175.136 7.828C175.208 9.556 175.244 10.6 175.244 10.96L175.028 16.36C175.076 16.384 175.208 16.396 175.424 16.396L178.016 16.288C179.888 16.288 180.824 16.576 180.824 17.152C180.824 17.968 180.488 18.448 179.816 18.592C179.504 18.664 179.132 18.7 178.7 18.7C178.292 18.7 177.752 18.652 177.08 18.556C176.432 18.436 175.964 18.376 175.676 18.376C175.388 18.376 175.196 18.388 175.1 18.412C175.028 19.108 174.992 19.804 174.992 20.5C174.992 21.172 175.004 22.024 175.028 23.056C175.076 24.064 175.172 25.276 175.316 26.692C175.484 28.108 175.832 29.332 176.36 30.364C176.888 31.372 177.56 31.876 178.376 31.876C178.784 31.876 179.264 31.72 179.816 31.408C180.368 31.072 180.788 30.904 181.076 30.904C181.388 30.904 181.652 30.976 181.868 31.12C182.108 31.24 182.228 31.384 182.228 31.552C182.228 32.056 181.712 32.548 180.68 33.028C179.672 33.484 178.808 33.712 178.088 33.712C175.448 33.712 173.804 31.216 173.156 26.224C172.964 24.784 172.82 22.312 172.724 18.808C172.34 18.88 171.932 18.916 171.5 18.916ZM184.402 18.916C183.322 18.916 182.59 18.652 182.206 18.124C182.206 17.74 182.362 17.44 182.674 17.224C183.01 17.008 183.37 16.876 183.754 16.828C184.138 16.756 184.762 16.696 185.626 16.648C185.698 16 185.734 15.172 185.734 14.164C185.758 13.132 185.782 12.256 185.806 11.536C185.878 9.64 186.166 8.476 186.67 8.044C186.886 7.852 187.114 7.756 187.354 7.756C187.618 7.756 187.846 7.78 188.038 7.828C188.11 9.556 188.146 10.6 188.146 10.96L187.93 16.36C187.978 16.384 188.11 16.396 188.326 16.396L190.918 16.288C192.79 16.288 193.726 16.576 193.726 17.152C193.726 17.968 193.39 18.448 192.718 18.592C192.406 18.664 192.034 18.7 191.602 18.7C191.194 18.7 190.654 18.652 189.982 18.556C189.334 18.436 188.866 18.376 188.578 18.376C188.29 18.376 188.098 18.388 188.002 18.412C187.93 19.108 187.894 19.804 187.894 20.5C187.894 21.172 187.906 22.024 187.93 23.056C187.978 24.064 188.074 25.276 188.218 26.692C188.386 28.108 188.734 29.332 189.262 30.364C189.79 31.372 190.462 31.876 191.278 31.876C191.686 31.876 192.166 31.72 192.718 31.408C193.27 31.072 193.69 30.904 193.978 30.904C194.29 30.904 194.554 30.976 194.77 31.12C195.01 31.24 195.13 31.384 195.13 31.552C195.13 32.056 194.614 32.548 193.582 33.028C192.574 33.484 191.71 33.712 190.99 33.712C188.35 33.712 186.706 31.216 186.058 26.224C185.866 24.784 185.722 22.312 185.626 18.808C185.242 18.88 184.834 18.916 184.402 18.916ZM199.105 26.692C199.057 27.172 199.033 27.496 199.033 27.664C199.033 29.104 199.465 30.22 200.329 31.012C201.217 31.804 202.261 32.2 203.461 32.2C204.661 32.2 205.633 32.032 206.377 31.696C207.145 31.36 207.697 31 208.033 30.616C208.897 29.536 209.689 28.996 210.409 28.996C210.673 28.996 210.985 29.068 211.345 29.212C211.105 30.388 210.193 31.468 208.609 32.452C207.049 33.412 205.081 33.892 202.705 33.892C201.025 33.892 199.573 33.364 198.349 32.308C197.149 31.228 196.549 29.764 196.549 27.916C196.549 26.068 196.909 24.28 197.629 22.552C198.373 20.8 199.429 19.312 200.797 18.088C202.189 16.84 203.593 16.216 205.009 16.216C206.449 16.216 207.601 16.516 208.465 17.116C209.353 17.692 209.797 18.544 209.797 19.672C209.797 21.76 208.861 23.488 206.989 24.856C205.141 26.2 203.173 26.872 201.085 26.872C200.533 26.872 199.873 26.812 199.105 26.692ZM201.841 25.504C202.969 25.504 203.977 25.144 204.865 24.424C205.753 23.704 206.377 22.948 206.737 22.156C207.121 21.364 207.313 20.644 207.313 19.996C207.313 19.348 207.061 18.784 206.557 18.304C206.053 17.8 205.465 17.548 204.793 17.548C203.593 17.548 202.477 18.376 201.445 20.032C200.437 21.688 199.717 23.404 199.285 25.18C200.341 25.396 201.193 25.504 201.841 25.504ZM217.812 30.472L217.92 32.524C217.92 33.052 217.764 33.424 217.452 33.64C217.164 33.832 216.864 33.928 216.552 33.928C216.264 33.928 215.964 33.88 215.652 33.784C215.124 31 214.716 27.532 214.428 23.38C214.164 19.228 214.008 16.876 213.96 16.324C214.32 15.988 214.692 15.82 215.076 15.82C215.484 15.82 215.844 15.868 216.156 15.964C216.252 16.66 216.324 18.196 216.372 20.572C216.42 22.948 216.48 24.436 216.552 25.036C216.888 23.02 217.488 21.136 218.352 19.384C218.832 18.4 219.456 17.62 220.224 17.044C221.016 16.444 221.856 16.144 222.744 16.144C223.656 16.144 224.484 16.552 225.228 17.368C225.996 18.16 226.38 18.88 226.38 19.528C226.38 19.768 226.236 19.96 225.948 20.104C225.66 20.224 225.336 20.284 224.976 20.284C224.64 20.284 224.376 20.152 224.184 19.888C223.992 19.624 223.86 19.336 223.788 19.024C223.716 18.688 223.56 18.388 223.32 18.124C223.08 17.86 222.756 17.728 222.348 17.728C221.268 17.728 220.344 18.7 219.576 20.644C218.4 23.548 217.812 26.824 217.812 30.472Z" fill="black"/>
</g>
<circle cx="64" cy="86" r="42.5" fill="#D9D9D9" stroke="black" stroke-width="5"/>
<circle cx="177" cy="86" r="42.5" fill="#D9D9D9" stroke="black" stroke-width="5"/>
<path d="M109 82L131.78 82.4975" stroke="black" stroke-width="3"/>
<path d="M55.4253 76.018C54.5947 77.6513 53.638 79.28 52.5553 80.904C53.1247 81.7347 53.8433 82.6773 54.7113 83.732C55.5887 84.7773 56.1767 85.4867 56.4753 85.86C56.466 85.9627 56.3913 86.0467 56.2513 86.112C56.1113 86.1867 55.9667 86.224 55.8173 86.224C55.5093 86.224 55.1173 85.958 54.6413 85.426C54.1747 84.8847 53.6473 84.18 53.0593 83.312C52.4713 82.444 52.1167 81.9307 51.9953 81.772C51.8367 81.9587 51.6267 82.262 51.3653 82.682C51.104 83.0927 50.8427 83.494 50.5813 83.886C50.3293 84.278 50.0493 84.67 49.7413 85.062C49.4333 85.454 49.0927 85.7667 48.7193 86C48.346 86.2427 47.9727 86.364 47.5993 86.364C47.4967 86.364 47.4173 86.3593 47.3613 86.35C47.9867 85.622 48.4813 85.0433 48.8453 84.614C49.8627 83.3913 50.7307 82.2107 51.4493 81.072C50.9733 80.456 50.404 79.7793 49.7413 79.042C49.0787 78.3047 48.5887 77.7447 48.2713 77.362C47.9633 76.97 47.8093 76.704 47.8093 76.564C47.8093 76.4147 47.8793 76.3073 48.0193 76.242C48.1687 76.1767 48.318 76.144 48.4673 76.144C48.7007 76.144 48.9947 76.368 49.3493 76.816C49.704 77.2547 50.1333 77.838 50.6373 78.566C51.1413 79.2847 51.5847 79.84 51.9673 80.232C52.21 79.84 52.4807 79.3453 52.7793 78.748C53.0873 78.1507 53.33 77.6747 53.5073 77.32C53.694 76.9653 53.9227 76.6527 54.1933 76.382C54.464 76.102 54.744 75.962 55.0333 75.962C55.108 75.962 55.2387 75.9807 55.4253 76.018ZM57.7607 83.158C57.742 83.3447 57.7327 83.4707 57.7327 83.536C57.7327 84.096 57.9007 84.53 58.2367 84.838C58.582 85.146 58.988 85.3 59.4547 85.3C59.9214 85.3 60.2994 85.2347 60.5887 85.104C60.8874 84.9733 61.102 84.8333 61.2327 84.684C61.5687 84.264 61.8767 84.054 62.1567 84.054C62.2594 84.054 62.3807 84.082 62.5207 84.138C62.4274 84.5953 62.0727 85.0153 61.4567 85.398C60.85 85.7713 60.0847 85.958 59.1607 85.958C58.5074 85.958 57.9427 85.7527 57.4667 85.342C57 84.922 56.7667 84.3527 56.7667 83.634C56.7667 82.9153 56.9067 82.22 57.1867 81.548C57.476 80.8667 57.8867 80.288 58.4187 79.812C58.96 79.3267 59.506 79.084 60.0567 79.084C60.6167 79.084 61.0647 79.2007 61.4007 79.434C61.746 79.658 61.9187 79.9893 61.9187 80.428C61.9187 81.24 61.5547 81.912 60.8267 82.444C60.108 82.9667 59.3427 83.228 58.5307 83.228C58.316 83.228 58.0594 83.2047 57.7607 83.158ZM58.8247 82.696C59.2634 82.696 59.6554 82.556 60.0007 82.276C60.346 81.996 60.5887 81.702 60.7287 81.394C60.878 81.086 60.9527 80.806 60.9527 80.554C60.9527 80.302 60.8547 80.0827 60.6587 79.896C60.4627 79.7 60.234 79.602 59.9727 79.602C59.506 79.602 59.072 79.924 58.6707 80.568C58.2787 81.212 57.9987 81.8793 57.8307 82.57C58.2414 82.654 58.5727 82.696 58.8247 82.696ZM65.0359 84.628L65.0779 85.426C65.0779 85.6313 65.0172 85.776 64.8959 85.86C64.7839 85.9347 64.6672 85.972 64.5459 85.972C64.4339 85.972 64.3172 85.9533 64.1959 85.916C63.9906 84.8333 63.8319 83.4847 63.7199 81.87C63.6172 80.2553 63.5566 79.3407 63.5379 79.126C63.6779 78.9953 63.8226 78.93 63.9719 78.93C64.1306 78.93 64.2706 78.9487 64.3919 78.986C64.4292 79.2567 64.4572 79.854 64.4759 80.778C64.4946 81.702 64.5179 82.2807 64.5459 82.514C64.6766 81.73 64.9099 80.9973 65.2459 80.316C65.4326 79.9333 65.6752 79.63 65.9739 79.406C66.2819 79.1727 66.6086 79.056 66.9539 79.056C67.3086 79.056 67.6306 79.2147 67.9199 79.532C68.2186 79.84 68.3679 80.12 68.3679 80.372C68.3679 80.4653 68.3119 80.54 68.1999 80.596C68.0879 80.6427 67.9619 80.666 67.8219 80.666C67.6912 80.666 67.5886 80.6147 67.5139 80.512C67.4392 80.4093 67.3879 80.2973 67.3599 80.176C67.3319 80.0453 67.2712 79.9287 67.1779 79.826C67.0846 79.7233 66.9586 79.672 66.7999 79.672C66.3799 79.672 66.0206 80.05 65.7219 80.806C65.2646 81.9353 65.0359 83.2093 65.0359 84.628ZM69.6633 80.19C70.1393 79.462 70.8253 79.098 71.7213 79.098C72.6173 79.098 73.3313 79.462 73.8633 80.19C74.4047 80.918 74.6753 81.7487 74.6753 82.682C74.6753 83.606 74.3813 84.39 73.7933 85.034C73.2053 85.678 72.4587 86 71.5533 86C70.648 86 69.99 85.748 69.5793 85.244C69.1687 84.7307 68.9633 84.012 68.9633 83.088C68.9633 81.884 69.1967 80.918 69.6633 80.19ZM70.2793 80.932C70.158 81.296 70.0647 81.66 69.9993 82.024C69.9433 82.388 69.9153 82.7287 69.9153 83.046C69.9153 83.354 69.9387 83.6387 69.9853 83.9C70.032 84.152 70.1113 84.404 70.2233 84.656C70.3353 84.8987 70.5033 85.0947 70.7273 85.244C70.9513 85.384 71.2173 85.454 71.5253 85.454C72.1507 85.454 72.6733 85.1973 73.0933 84.684C73.5227 84.1707 73.7373 83.55 73.7373 82.822C73.7373 82.094 73.5413 81.3893 73.1493 80.708C72.7667 80.0173 72.2953 79.672 71.7353 79.672C71.3993 79.672 71.1053 79.7887 70.8533 80.022C70.6013 80.2553 70.41 80.5587 70.2793 80.932ZM75.6026 79.42C75.7613 79.2053 75.9619 79.098 76.2046 79.098C76.2979 79.098 76.3913 79.1213 76.4846 79.168C76.6806 80.4187 77.0913 81.5667 77.7166 82.612C78.1273 81.8467 78.6219 80.7687 79.2006 79.378C79.4246 79.2567 79.6019 79.196 79.7326 79.196C79.8726 79.196 79.9846 79.21 80.0686 79.238C79.8819 79.8447 79.6626 80.4093 79.4106 80.932C79.1586 81.4547 78.9206 81.9353 78.6966 82.374C78.4726 82.8127 78.3093 83.1347 78.2066 83.34C78.4679 83.6667 78.6873 83.928 78.8646 84.124C79.0513 84.3107 79.3079 84.5067 79.6346 84.712C80.0639 84.992 80.4699 85.132 80.8526 85.132C81.0486 85.132 81.1839 85.1693 81.2586 85.244C81.1559 85.5613 80.9086 85.72 80.5166 85.72C79.8633 85.72 79.2099 85.4633 78.5566 84.95C78.3139 84.754 78.1693 84.6373 78.1226 84.6C78.0853 84.5533 77.9593 84.4273 77.7446 84.222C77.6699 84.334 77.5626 84.53 77.4226 84.81C77.2919 85.09 77.1799 85.314 77.0866 85.482C76.9933 85.6407 76.8673 85.7667 76.7086 85.86C76.5499 85.944 76.4099 85.986 76.2886 85.986C76.1766 85.986 76.0693 85.972 75.9666 85.944C76.1159 85.636 76.3353 85.216 76.6246 84.684C76.9233 84.152 77.1239 83.788 77.2266 83.592C76.7599 82.864 76.3866 82.1873 76.1066 81.562C75.8359 80.9273 75.6679 80.2133 75.6026 79.42Z" fill="black"/>
<path d="M148.289 76.144C148.196 80.3627 148.144 83.6573 148.135 86.028C147.995 86.1773 147.869 86.252 147.757 86.252C147.654 86.252 147.566 86.2287 147.491 86.182C147.276 86.042 147.169 85.7807 147.169 85.398C147.188 80.9087 147.22 78.2813 147.267 77.516C147.314 76.7507 147.384 76.3073 147.477 76.186C147.57 76.0647 147.682 76.004 147.813 76.004C147.944 76.004 148.102 76.0507 148.289 76.144ZM150.799 79.882C150.902 79.882 150.953 80.498 150.953 81.73C150.953 81.926 150.949 82.2387 150.939 82.668C150.939 83.0973 150.939 83.3213 150.939 83.34C151.033 82.2853 151.126 81.5667 151.219 81.184C151.322 80.8013 151.425 80.4747 151.527 80.204C151.63 79.924 151.742 79.7093 151.863 79.56C152.162 79.1773 152.507 78.986 152.899 78.986C153.394 78.986 153.763 79.2333 154.005 79.728C154.257 80.2227 154.388 80.8807 154.397 81.702C154.631 80.0127 155.247 79.168 156.245 79.168C156.675 79.168 156.978 79.3873 157.155 79.826C157.333 80.2647 157.421 80.7873 157.421 81.394L157.379 83.522C157.379 84.922 157.683 85.622 158.289 85.622L159.087 85.496C159.134 85.496 159.181 85.5007 159.227 85.51C159.134 85.65 158.961 85.762 158.709 85.846C158.457 85.9207 158.21 85.958 157.967 85.958C157.491 85.958 157.132 85.748 156.889 85.328C156.656 84.8987 156.53 84.4507 156.511 83.984C156.493 83.508 156.483 83.102 156.483 82.766L156.511 81.52C156.511 81.1093 156.483 80.7173 156.427 80.344C156.381 79.9707 156.25 79.784 156.035 79.784C155.718 79.784 155.41 80.4513 155.111 81.786C154.822 83.1113 154.645 84.3713 154.579 85.566C154.421 85.734 154.22 85.8227 153.977 85.832C153.903 85.832 153.833 85.818 153.767 85.79C153.683 85.3047 153.637 84.4973 153.627 83.368C153.627 82.2293 153.571 81.324 153.459 80.652C153.347 79.98 153.095 79.644 152.703 79.644C152.442 79.644 152.227 79.9333 152.059 80.512C151.789 81.4173 151.546 82.8267 151.331 84.74C151.275 85.188 151.233 85.51 151.205 85.706C151.009 85.874 150.809 85.958 150.603 85.958L150.393 85.93C150.263 84.3713 150.197 82.4393 150.197 80.134C150.3 79.966 150.501 79.882 150.799 79.882ZM160.305 85.566C160.333 86.322 160.426 87.3907 160.585 88.772C160.408 88.9493 160.198 89.038 159.955 89.038C159.908 89.038 159.857 89.0333 159.801 89.024C159.792 88.66 159.722 87.834 159.591 86.546C159.47 85.258 159.409 84.2733 159.409 83.592C159.409 82.9013 159.451 82.304 159.535 81.8C159.619 81.296 159.764 80.8247 159.969 80.386C160.389 79.4807 161.164 79.028 162.293 79.028C162.993 79.028 163.567 79.4107 164.015 80.176C164.463 80.9413 164.687 81.8327 164.687 82.85C164.687 83.6527 164.426 84.3573 163.903 84.964C163.38 85.5707 162.657 85.874 161.733 85.874C161.164 85.874 160.688 85.7713 160.305 85.566ZM162.181 79.784C161.388 79.784 160.86 80.1947 160.599 81.016C160.375 81.716 160.263 82.682 160.263 83.914C160.263 84.362 160.268 84.6933 160.277 84.908C161.108 85.0853 161.672 85.174 161.971 85.174C162.512 85.174 162.942 84.9593 163.259 84.53C163.576 84.0913 163.735 83.5593 163.735 82.934C163.735 82.01 163.595 81.254 163.315 80.666C163.044 80.078 162.666 79.784 162.181 79.784ZM167.455 84.628L167.497 85.426C167.497 85.6313 167.436 85.776 167.315 85.86C167.203 85.9347 167.086 85.972 166.965 85.972C166.853 85.972 166.736 85.9533 166.615 85.916C166.41 84.8333 166.251 83.4847 166.139 81.87C166.036 80.2553 165.976 79.3407 165.957 79.126C166.097 78.9953 166.242 78.93 166.391 78.93C166.55 78.93 166.69 78.9487 166.811 78.986C166.848 79.2567 166.876 79.854 166.895 80.778C166.914 81.702 166.937 82.2807 166.965 82.514C167.096 81.73 167.329 80.9973 167.665 80.316C167.852 79.9333 168.094 79.63 168.393 79.406C168.701 79.1727 169.028 79.056 169.373 79.056C169.728 79.056 170.05 79.2147 170.339 79.532C170.638 79.84 170.787 80.12 170.787 80.372C170.787 80.4653 170.731 80.54 170.619 80.596C170.507 80.6427 170.381 80.666 170.241 80.666C170.11 80.666 170.008 80.6147 169.933 80.512C169.858 80.4093 169.807 80.2973 169.779 80.176C169.751 80.0453 169.69 79.9287 169.597 79.826C169.504 79.7233 169.378 79.672 169.219 79.672C168.799 79.672 168.44 80.05 168.141 80.806C167.684 81.9353 167.455 83.2093 167.455 84.628ZM172.143 83.158C172.124 83.3447 172.115 83.4707 172.115 83.536C172.115 84.096 172.283 84.53 172.619 84.838C172.964 85.146 173.37 85.3 173.837 85.3C174.303 85.3 174.681 85.2347 174.971 85.104C175.269 84.9733 175.484 84.8333 175.615 84.684C175.951 84.264 176.259 84.054 176.539 84.054C176.641 84.054 176.763 84.082 176.903 84.138C176.809 84.5953 176.455 85.0153 175.839 85.398C175.232 85.7713 174.467 85.958 173.543 85.958C172.889 85.958 172.325 85.7527 171.849 85.342C171.382 84.922 171.149 84.3527 171.149 83.634C171.149 82.9153 171.289 82.22 171.569 81.548C171.858 80.8667 172.269 80.288 172.801 79.812C173.342 79.3267 173.888 79.084 174.439 79.084C174.999 79.084 175.447 79.2007 175.783 79.434C176.128 79.658 176.301 79.9893 176.301 80.428C176.301 81.24 175.937 81.912 175.209 82.444C174.49 82.9667 173.725 83.228 172.913 83.228C172.698 83.228 172.441 83.2047 172.143 83.158ZM173.207 82.696C173.645 82.696 174.037 82.556 174.383 82.276C174.728 81.996 174.971 81.702 175.111 81.394C175.26 81.086 175.335 80.806 175.335 80.554C175.335 80.302 175.237 80.0827 175.041 79.896C174.845 79.7 174.616 79.602 174.355 79.602C173.888 79.602 173.454 79.924 173.053 80.568C172.661 81.212 172.381 81.8793 172.213 82.57C172.623 82.654 172.955 82.696 173.207 82.696ZM181.56 80.4C181.476 80.1853 181.317 80.0173 181.084 79.896C180.85 79.7747 180.561 79.714 180.216 79.714C179.87 79.714 179.544 79.8167 179.236 80.022C178.937 80.2273 178.788 80.5027 178.788 80.848C178.788 81.1933 178.928 81.4687 179.208 81.674C179.497 81.87 179.842 82.0193 180.244 82.122C180.654 82.2247 181.065 82.3367 181.476 82.458C181.886 82.57 182.232 82.7613 182.512 83.032C182.801 83.2933 182.946 83.6387 182.946 84.068C182.946 84.6933 182.684 85.1693 182.162 85.496C181.648 85.8227 181.028 85.986 180.3 85.986C179.87 85.986 179.306 85.8693 178.606 85.636C177.915 85.4027 177.57 85.1227 177.57 84.796C177.57 84.5533 177.775 84.432 178.186 84.432C178.307 84.432 178.466 84.5067 178.662 84.656C179.259 85.0947 179.87 85.314 180.496 85.314C180.832 85.314 181.121 85.258 181.364 85.146C181.812 84.9313 182.036 84.586 182.036 84.11C182.036 83.8207 181.891 83.5873 181.602 83.41C181.322 83.2327 180.976 83.0927 180.566 82.99C180.164 82.8873 179.758 82.7753 179.348 82.654C178.937 82.5327 178.587 82.332 178.298 82.052C178.018 81.7627 177.878 81.3987 177.878 80.96C177.878 80.3907 178.134 79.9287 178.648 79.574C179.161 79.2193 179.796 79.042 180.552 79.042C181.065 79.042 181.527 79.1773 181.938 79.448C182.358 79.7093 182.568 80.092 182.568 80.596C182.568 80.932 182.376 81.1 181.994 81.1C181.835 81.1 181.728 81.072 181.672 81.016C181.625 80.96 181.597 80.862 181.588 80.722C181.588 80.5727 181.578 80.4653 181.56 80.4ZM187.657 80.4C187.573 80.1853 187.415 80.0173 187.181 79.896C186.948 79.7747 186.659 79.714 186.313 79.714C185.968 79.714 185.641 79.8167 185.333 80.022C185.035 80.2273 184.885 80.5027 184.885 80.848C184.885 81.1933 185.025 81.4687 185.305 81.674C185.595 81.87 185.94 82.0193 186.341 82.122C186.752 82.2247 187.163 82.3367 187.573 82.458C187.984 82.57 188.329 82.7613 188.609 83.032C188.899 83.2933 189.043 83.6387 189.043 84.068C189.043 84.6933 188.782 85.1693 188.259 85.496C187.746 85.8227 187.125 85.986 186.397 85.986C185.968 85.986 185.403 85.8693 184.703 85.636C184.013 85.4027 183.667 85.1227 183.667 84.796C183.667 84.5533 183.873 84.432 184.283 84.432C184.405 84.432 184.563 84.5067 184.759 84.656C185.357 85.0947 185.968 85.314 186.593 85.314C186.929 85.314 187.219 85.258 187.461 85.146C187.909 84.9313 188.133 84.586 188.133 84.11C188.133 83.8207 187.989 83.5873 187.699 83.41C187.419 83.2327 187.074 83.0927 186.663 82.99C186.262 82.8873 185.856 82.7753 185.445 82.654C185.035 82.5327 184.685 82.332 184.395 82.052C184.115 81.7627 183.975 81.3987 183.975 80.96C183.975 80.3907 184.232 79.9287 184.745 79.574C185.259 79.2193 185.893 79.042 186.649 79.042C187.163 79.042 187.625 79.1773 188.035 79.448C188.455 79.7093 188.665 80.092 188.665 80.596C188.665 80.932 188.474 81.1 188.091 81.1C187.933 81.1 187.825 81.072 187.769 81.016C187.723 80.96 187.695 80.862 187.685 80.722C187.685 80.5727 187.676 80.4653 187.657 80.4ZM190.717 80.19C191.193 79.462 191.879 79.098 192.775 79.098C193.671 79.098 194.385 79.462 194.917 80.19C195.458 80.918 195.729 81.7487 195.729 82.682C195.729 83.606 195.435 84.39 194.847 85.034C194.259 85.678 193.512 86 192.607 86C191.702 86 191.044 85.748 190.633 85.244C190.222 84.7307 190.017 84.012 190.017 83.088C190.017 81.884 190.25 80.918 190.717 80.19ZM191.333 80.932C191.212 81.296 191.118 81.66 191.053 82.024C190.997 82.388 190.969 82.7287 190.969 83.046C190.969 83.354 190.992 83.6387 191.039 83.9C191.086 84.152 191.165 84.404 191.277 84.656C191.389 84.8987 191.557 85.0947 191.781 85.244C192.005 85.384 192.271 85.454 192.579 85.454C193.204 85.454 193.727 85.1973 194.147 84.684C194.576 84.1707 194.791 83.55 194.791 82.822C194.791 82.094 194.595 81.3893 194.203 80.708C193.82 80.0173 193.349 79.672 192.789 79.672C192.453 79.672 192.159 79.7887 191.907 80.022C191.655 80.2553 191.464 80.5587 191.333 80.932ZM191.361 78.076C191.258 78.1973 191.072 78.258 190.801 78.258C190.53 78.258 190.395 78.1973 190.395 78.076C190.395 78.0293 190.414 77.978 190.451 77.922C191.048 77.2127 191.608 76.858 192.131 76.858C192.43 76.858 192.78 76.9793 193.181 77.222C193.582 77.4647 193.83 77.586 193.923 77.586C194.016 77.586 194.091 77.558 194.147 77.502C194.212 77.446 194.264 77.39 194.301 77.334C194.376 77.222 194.464 77.0633 194.567 76.858C194.651 76.7087 194.828 76.634 195.099 76.634C195.118 76.634 195.136 76.634 195.155 76.634C195.416 76.6433 195.538 76.732 195.519 76.9L195.477 77.026C195.066 77.866 194.502 78.286 193.783 78.286C193.54 78.286 193.223 78.1693 192.831 77.936C192.448 77.7027 192.196 77.586 192.075 77.586C191.87 77.586 191.632 77.7493 191.361 78.076ZM197.818 83.158C197.8 83.3447 197.79 83.4707 197.79 83.536C197.79 84.096 197.958 84.53 198.294 84.838C198.64 85.146 199.046 85.3 199.512 85.3C199.979 85.3 200.357 85.2347 200.646 85.104C200.945 84.9733 201.16 84.8333 201.29 84.684C201.626 84.264 201.934 84.054 202.214 84.054C202.317 84.054 202.438 84.082 202.578 84.138C202.485 84.5953 202.13 85.0153 201.514 85.398C200.908 85.7713 200.142 85.958 199.218 85.958C198.565 85.958 198 85.7527 197.524 85.342C197.058 84.922 196.824 84.3527 196.824 83.634C196.824 82.9153 196.964 82.22 197.244 81.548C197.534 80.8667 197.944 80.288 198.476 79.812C199.018 79.3267 199.564 79.084 200.114 79.084C200.674 79.084 201.122 79.2007 201.458 79.434C201.804 79.658 201.976 79.9893 201.976 80.428C201.976 81.24 201.612 81.912 200.884 82.444C200.166 82.9667 199.4 83.228 198.588 83.228C198.374 83.228 198.117 83.2047 197.818 83.158ZM198.882 82.696C199.321 82.696 199.713 82.556 200.058 82.276C200.404 81.996 200.646 81.702 200.786 81.394C200.936 81.086 201.01 80.806 201.01 80.554C201.01 80.302 200.912 80.0827 200.716 79.896C200.52 79.7 200.292 79.602 200.03 79.602C199.564 79.602 199.13 79.924 198.728 80.568C198.336 81.212 198.056 81.8793 197.888 82.57C198.299 82.654 198.63 82.696 198.882 82.696ZM207.236 80.4C207.152 80.1853 206.993 80.0173 206.76 79.896C206.526 79.7747 206.237 79.714 205.892 79.714C205.546 79.714 205.22 79.8167 204.912 80.022C204.613 80.2273 204.464 80.5027 204.464 80.848C204.464 81.1933 204.604 81.4687 204.884 81.674C205.173 81.87 205.518 82.0193 205.92 82.122C206.33 82.2247 206.741 82.3367 207.152 82.458C207.562 82.57 207.908 82.7613 208.188 83.032C208.477 83.2933 208.622 83.6387 208.622 84.068C208.622 84.6933 208.36 85.1693 207.838 85.496C207.324 85.8227 206.704 85.986 205.976 85.986C205.546 85.986 204.982 85.8693 204.282 85.636C203.591 85.4027 203.246 85.1227 203.246 84.796C203.246 84.5533 203.451 84.432 203.862 84.432C203.983 84.432 204.142 84.5067 204.338 84.656C204.935 85.0947 205.546 85.314 206.172 85.314C206.508 85.314 206.797 85.258 207.04 85.146C207.488 84.9313 207.712 84.586 207.712 84.11C207.712 83.8207 207.567 83.5873 207.278 83.41C206.998 83.2327 206.652 83.0927 206.242 82.99C205.84 82.8873 205.434 82.7753 205.024 82.654C204.613 82.5327 204.263 82.332 203.974 82.052C203.694 81.7627 203.554 81.3987 203.554 80.96C203.554 80.3907 203.81 79.9287 204.324 79.574C204.837 79.2193 205.472 79.042 206.228 79.042C206.741 79.042 207.203 79.1773 207.614 79.448C208.034 79.7093 208.244 80.092 208.244 80.596C208.244 80.932 208.052 81.1 207.67 81.1C207.511 81.1 207.404 81.072 207.348 81.016C207.301 80.96 207.273 80.862 207.264 80.722C207.264 80.5727 207.254 80.4653 207.236 80.4Z" fill="black"/>
<defs>
<filter id="filter0_d_0_1" x="23.2681" y="7" width="207.112" height="43.892" filterUnits="userSpaceOnUse" color-interpolation-filters="sRGB">
<feFlood flood-opacity="0" result="BackgroundImageFix"/>
<feColorMatrix in="SourceAlpha" type="matrix" values="0 0 0 0 0 0 0 0 0 0 0 0 0 0 0 0 0 0 127 0" result="hardAlpha"/>
<feOffset dy="4"/>
<feGaussianBlur stdDeviation="2"/>
<feComposite in2="hardAlpha" operator="out"/>
<feColorMatrix type="matrix" values="0 0 0 0 0 0 0 0 0 0 0 0 0 0 0 0 0 0 0.25 0"/>
<feBlend mode="normal" in2="BackgroundImageFix" result="effect1_dropShadow_0_1"/>
<feBlend mode="normal" in="SourceGraphic" in2="effect1_dropShadow_0_1" result="shape"/>
</filter>
</defs>
</svg>
